# xmcd CD database file
#
# Track frame offsets:
#	182
#	11625
#	25265
#
# Disc length: 531 seconds
#
# Revision: 0
# Processed by: cddbd v1.5.1PL0 Copyright (c) Steve Scherf et al.
# Submitted via: Feurio! 1.67 - http://www.feurio.com
#
DISCID=19021103
DTITLE=Truckstop - Erwin, der dicke Schneemann (Maxi)
DYEAR=1991
DGENRE=
TTITLE0=Erwin, der dicke Schneemann
TTITLE1=Ich wünsche mir zum Weihnachtsfest
TTITLE2=Söhnchen mein Söhnchen
EXTD=
EXTT0=
EXTT1=
EXTT2=
PLAYORDER=
